<svg width="100" height="15" viewBox="0 0 100 15" fill="none" xmlns="http://www.w3.org/2000/svg">
<path d="M14.3268 3.87314L15.6774 0.509235C6.96678 0.170069 2.56797 9.25757 1.4574 13.8437H10.3743L11.7142 10.4773H5.36259C7.87756 4.8871 12.3702 3.74528 14.3268 3.87314Z" fill="white"/>
<path d="M17.7743 10.4706L16.4238 13.8345C25.1344 14.1736 29.5332 5.08612 30.6438 0.49998L21.7269 0.499979L20.387 3.86641L26.7386 3.86641C24.2236 9.45659 19.731 10.5984 17.7743 10.4706Z" fill="white"/>
<path d="M12.3983 8.69215L13.6061 5.67609C10.8181 5.49276 8.98351 7.61041 8.4147 8.69215H12.3983Z" fill="white"/>
<path d="M19.7029 5.66485L18.495 8.6809C21.283 8.86423 23.1176 6.74659 23.6864 5.66485L19.7029 5.66485Z" fill="white"/>
<path d="M19.249 0.5L20.5367 0.5L15.2284 13.8437H13.9407L19.249 0.5Z" fill="white"/>
<path d="M16.9596 0.5L18.2473 0.5L12.939 13.8437H11.6513L16.9596 0.5Z" fill="white"/>
<path d="M35.1808 12C34.8886 12 34.6214 11.9287 34.379 11.7862C34.1439 11.6437 33.955 11.4548 33.8125 11.2196C33.6699 10.9773 33.5987 10.71 33.5987 10.4178V5.88518C33.5987 5.59298 33.6699 5.32929 33.8125 5.0941C33.955 4.85179 34.1439 4.65937 34.379 4.51683C34.6214 4.3743 34.8886 4.30303 35.1808 4.30303H41.2742V5.9707H35.6084C35.4944 5.9707 35.4053 5.99921 35.3412 6.05623C35.2841 6.11324 35.2556 6.20233 35.2556 6.32348V9.97954C35.2556 10.0936 35.2841 10.1827 35.3412 10.2468C35.4053 10.3038 35.4944 10.3323 35.6084 10.3323H41.2742V12H35.1808ZM43.8962 12C43.6182 12 43.3617 11.9287 43.1265 11.7862C42.8913 11.6437 42.7025 11.4548 42.5599 11.2196C42.4174 10.9844 42.3461 10.7279 42.3461 10.4499V3.75782H43.9924V10.3644H45.2432V12H43.8962ZM47.6234 12C47.3383 12 47.0782 11.9287 46.843 11.7862C46.6078 11.6437 46.419 11.4548 46.2764 11.2196C46.141 10.9844 46.0733 10.7279 46.0733 10.4499V5.79966H47.7089V10.3644H50.7236V5.79966H52.3592V10.4499C52.3592 10.7279 52.2879 10.9844 52.1454 11.2196C52.01 11.4548 51.8247 11.6437 51.5895 11.7862C51.3543 11.9287 51.0942 12 50.8091 12H47.6234ZM53.2352 12V3.76851H54.8708V5.79966H57.971C58.2561 5.79966 58.5162 5.87093 58.7514 6.01347C58.9866 6.156 59.1719 6.34486 59.3073 6.58005C59.4498 6.81523 59.5211 7.0718 59.5211 7.34975V10.4499C59.5211 10.7279 59.4498 10.9844 59.3073 11.2196C59.1719 11.4548 58.9866 11.6437 58.7514 11.7862C58.5162 11.9287 58.2561 12 57.971 12H53.2352ZM54.8708 10.3644H57.8855V7.43527H54.8708V10.3644ZM65.3928 12C65.1077 12 64.844 11.9287 64.6017 11.7862C64.3594 11.6437 64.1669 11.4512 64.0244 11.2089C63.8819 10.9666 63.8106 10.7029 63.8106 10.4178V9.7016H65.4676V10.3323H69.8292V8.98535H65.3928C65.1077 8.98535 64.844 8.91408 64.6017 8.77155C64.3594 8.62901 64.1669 8.44015 64.0244 8.20496C63.8819 7.96265 63.8106 7.6954 63.8106 7.4032V5.88518C63.8106 5.59298 63.8819 5.32929 64.0244 5.0941C64.1669 4.85179 64.3594 4.65937 64.6017 4.51683C64.844 4.3743 65.1077 4.30303 65.3928 4.30303H69.9254C70.2105 4.30303 70.4706 4.3743 70.7058 4.51683C70.9481 4.65937 71.1405 4.85179 71.2831 5.0941C71.4327 5.32929 71.5076 5.59298 71.5076 5.88518V6.60143H69.8292V5.9707H65.4676V7.31767H69.9254C70.2105 7.31767 70.4706 7.38894 70.7058 7.53148C70.9481 7.67402 71.1405 7.86644 71.2831 8.10875C71.4327 8.34394 71.5076 8.60763 71.5076 8.89983V10.4178C71.5076 10.7029 71.4327 10.9666 71.2831 11.2089C71.1405 11.4512 70.9481 11.6437 70.7058 11.7862C70.4706 11.9287 70.2105 12 69.9254 12H65.3928ZM74.1815 12C73.9035 12 73.647 11.9287 73.4118 11.7862C73.1766 11.6437 72.9877 11.4548 72.8452 11.2196C72.7027 10.9844 72.6314 10.7279 72.6314 10.4499V7.34975C72.6314 7.0718 72.7027 6.81523 72.8452 6.58005C72.9877 6.34486 73.1766 6.156 73.4118 6.01347C73.647 5.87093 73.9035 5.79966 74.1815 5.79966H77.3672C77.6522 5.79966 77.9124 5.87093 78.1476 6.01347C78.3827 6.156 78.568 6.34486 78.7034 6.58005C78.846 6.81523 78.9173 7.0718 78.9173 7.34975V9.72298H74.267V10.3644H78.9173V12H74.1815ZM74.267 8.29049H77.2816V7.43527H74.267V8.29049ZM81.3222 12C81.0443 12 80.7877 11.9287 80.5525 11.7862C80.3173 11.6437 80.1285 11.4548 79.9859 11.2196C79.8434 10.9844 79.7721 10.7279 79.7721 10.4499V7.34975C79.7721 7.0718 79.8434 6.81523 79.9859 6.58005C80.1285 6.34486 80.3173 6.156 80.5525 6.01347C80.7877 5.87093 81.0443 5.79966 81.3222 5.79966H84.5079C84.793 5.79966 85.0531 5.87093 85.2883 6.01347C85.5235 6.156 85.7088 6.34486 85.8442 6.58005C85.9867 6.81523 86.058 7.0718 86.058 7.34975V9.72298H81.4077V10.3644H86.058V12H81.3222ZM81.4077 8.29049H84.4224V7.43527H81.4077V8.29049ZM90.6831 12V9.01742C90.6831 8.73235 90.7544 8.47222 90.8969 8.23704C91.0395 8.00185 91.2283 7.81655 91.4635 7.68114C91.6987 7.53861 91.9588 7.46734 92.2439 7.46734H96.6055V5.93863H92.3187V6.55867H90.6831V5.85311C90.6831 5.56804 90.7544 5.30791 90.8969 5.07272C91.0395 4.83754 91.2283 4.65224 91.4635 4.51683C91.6987 4.3743 91.9588 4.30303 92.2439 4.30303H96.6803C96.9654 4.30303 97.2255 4.3743 97.4607 4.51683C97.6959 4.65224 97.8848 4.83754 98.0273 5.07272C98.1698 5.30791 98.2411 5.56804 98.2411 5.85311V7.55286C98.2411 7.83793 98.1698 8.09806 98.0273 8.33325C97.8848 8.56843 97.6959 8.75729 97.4607 8.89983C97.2255 9.04237 96.9654 9.11364 96.6803 9.11364H92.3187V10.3644H98.2411V12H90.6831Z" fill="white"/>
</svg>
